name C:\Users\u0101727\Documents\MyRepositories\upper-imu-dc\Results\main_tracking\Case_53\kinematics_filtered.mot
datacolumns 10
datarows 37
range 1.37000000 1.73000000
endheader 
time	clav_prot	clav_elev	scapula_abduction	scapula_elevation	scapula_upward_rot	scapula_winging	plane_elv	shoulder_elv	axial_rot	
          1.37000000	        -23.89330976	         14.63652937	        -11.45626494	          6.04269090	         29.48340601	         -1.09756365	        -10.94588793	          0.80451412	         47.10872281	
          1.38000000	        -23.84587867	         14.68771311	        -11.40127750	          6.08379434	         29.48291855	         -1.08510976	        -10.68417261	          0.80892502	         46.78678506	
          1.39000000	        -23.79883567	         14.72816503	        -11.34441951	          6.11807900	         29.47743473	         -1.07247378	        -10.43462464	          0.81567320	         46.48133653	
          1.40000000	        -23.75340717	         14.75932378	        -11.28795834	          6.14628607	         29.46799523	         -1.05998481	        -10.19210544	          0.82410215	         46.18918992	
          1.41000000	        -23.71058327	         14.78254667	        -11.23379502	          6.16914074	         29.45551777	         -1.04790095	         -9.95187901	          0.83364018	         45.90722430	
          1.42000000	        -23.67113341	         14.79907317	        -11.18347802	          6.18732801	         29.44078134	         -1.03641182	         -9.70988927	          0.84380907	         45.63256433	
          1.43000000	        -23.63561483	         14.80999443	        -11.13820417	          6.20147223	         29.42441528	         -1.02564267	         -9.46301609	          0.85422842	         45.36276465	
          1.44000000	        -23.60437820	         14.81623091	        -11.09881518	          6.21212127	         29.40689410	         -1.01565966	         -9.20928500	          0.86461581	         45.09597769	
          1.45000000	        -23.57757443	         14.81851982	        -11.06579817	          6.21973640	         29.38853880	         -1.00647635	         -8.94800600	          0.87478359	         44.83108180	
          1.46000000	        -23.55516643	         14.81741366	        -11.03929730	          6.22468841	         29.36952502	         -0.99806096	         -8.67982198	          0.88463285	         44.56774950	
          1.47000000	        -23.53694812	         14.81329016	        -11.01914137	          6.22726016	         29.34989805	         -0.99034453	         -8.40665563	          0.89414597	         44.30644280	
          1.48000000	        -23.52257163	         14.80637280	        -11.00488871	          6.22765502	         29.32959363	         -0.98322955	         -8.13155500	          0.90337813	         44.04833297	
          1.49000000	        -23.51158182	         14.79676014	        -10.99588818	          6.22601039	         29.30846352	         -0.97659885	         -7.85845005	          0.91244858	         43.79515337	
          1.50000000	        -23.50345608	         14.78446108	        -10.99135145	          6.22241459	         29.28630372	         -0.97032440	         -7.59184367	          0.92153153	         43.54900425	
          1.51000000	        -23.49764586	         14.76943253	        -10.99043024	          6.21692539	         29.26288315	         -0.96427551	         -7.33646855	          0.93084682	         43.31213517	
          1.52000000	        -23.49361631	         14.75161588	        -10.99229072	          6.20958827	         29.23797047	         -0.95832611	         -7.09694480	          0.94064985	         43.08673302	
          1.53000000	        -23.49088009	         14.73096869	        -10.99617768	          6.20045236	         29.21135679	         -0.95236055	         -6.87747144	          0.95122101	         42.87474025	
          1.54000000	        -23.48902254	         14.70748909	        -11.00146251	          6.18958295	         29.18287290	         -0.94627785	         -6.68157802	          0.96285454	         42.67772048	
          1.55000000	        -23.48771631	         14.68123112	        -11.00767137	          6.17706944	         29.15239988	         -0.93999406	         -6.51195201	          0.97584738	         42.49677801	
          1.56000000	        -23.48672532	         14.65231099	        -11.01449305	          6.16302872	         29.11987352	         -0.93344299	         -6.37034550	          0.99048887	         42.33252660	
          1.57000000	        -23.48589922	         14.62090529	        -11.02176853	          6.14760448	         29.08528311	         -0.92657553	         -6.25755352	          1.00705205	         42.18509403	
          1.58000000	        -23.48516070	         14.58724306	        -11.02946673	          6.13096341	         29.04866631	         -0.91935793	         -6.17344846	          1.02578731	         42.05414465	
          1.59000000	        -23.48448833	         14.55159426	        -11.03765177	          6.11328944	         29.01010161	         -0.91176947	         -6.11705181	          1.04691907	         41.93890288	
          1.60000000	        -23.48389793	         14.51425688	        -11.04644710	          6.09477747	         28.96970002	         -0.90380004	         -6.08662672	          1.07064509	         41.83816674	
          1.61000000	        -23.48342442	         14.47554480	        -11.05600085	          6.07562730	         28.92759712	         -0.89544773	         -6.07977991	          1.09713796	         41.75030932	
          1.62000000	        -23.48310603	         14.43577742	        -11.06645561	          6.05603860	         28.88394629	         -0.88671675	         -6.09356877	          1.12654757	         41.67327569	
          1.63000000	        -23.48297121	         14.39527169	        -11.07792387	          6.03620713	         28.83891320	         -0.87761575	         -6.12461566	          1.15900298	         41.60458931	
          1.64000000	        -23.48302866	         14.35433643	        -11.09046948	          6.01632213	         28.79267155	         -0.86815636	         -6.16923490	          1.19461233	         41.54138483	
          1.65000000	        -23.48326002	         14.31326846	        -11.10409454	          5.99656472	         28.74539980	         -0.85835204	         -6.22357812	          1.23345972	         41.48048151	
          1.66000000	        -23.48361487	         14.27234993	        -11.11873088	          5.97710689	         28.69727831	         -0.84821714	         -6.28380066	          1.27559846	         41.41850550	
          1.67000000	        -23.48400749	         14.23184625	        -11.13423503	          5.95811070	         28.64848689	         -0.83776607	         -6.34624687	          1.32104094	         41.35206050	
          1.68000000	        -23.48431542	         14.19200396	        -11.15038632	          5.93972740	         28.59920233	         -0.82701260	         -6.40764644	          1.36974585	         41.27793766	
          1.69000000	        -23.48437955	         14.15304843	        -11.16688772	          5.92209615	         28.54959608	         -0.81596944	         -6.46530847	          1.42160419	         41.19334760	
          1.70000000	        -23.48400607	         14.11518101	        -11.18336952	          5.90534233	         28.49983211	         -0.80464802	         -6.51729669	          1.47642577	         41.09615226	
          1.71000000	        -23.48297027	         14.07857581	        -11.19939618	          5.88957534	         28.45006498	         -0.79305858	         -6.56256779	          1.53392818	         40.98507193	
          1.72000000	        -23.48102260	         14.04337625	        -11.21447654	          5.87488585	         28.40043836	         -0.78121067	         -6.60105666	          1.59373005	         40.85984421	
          1.73000000	        -23.47789651	         14.00969142	        -11.22807721	          5.86134296	         28.35108391	         -0.76911386	         -6.63369624	          1.65535016	         40.72131565	
